<svg width="10" height="8" viewBox="0 0 10 8" fill="none" xmlns="http://www.w3.org/2000/svg">
<path d="M9.47297 0.806665C9.411 0.74418 9.33726 0.694583 9.25602 0.660738C9.17479 0.626892 9.08765 0.609467 8.99964 0.609467C8.91163 0.609467 8.8245 0.626892 8.74326 0.660738C8.66202 0.694583 8.58828 0.74418 8.52631 0.806665L3.55964 5.78L1.47297 3.68667C1.40863 3.62451 1.33267 3.57563 1.24943 3.54283C1.16619 3.51003 1.07731 3.49394 0.987856 3.49549C0.898402 3.49703 0.810129 3.51619 0.728077 3.55185C0.646025 3.58751 0.5718 3.63898 0.509641 3.70333C0.447482 3.76768 0.398606 3.84364 0.365803 3.92688C0.333001 4.01011 0.316914 4.099 0.318461 4.18845C0.320009 4.2779 0.339161 4.36618 0.374823 4.44823C0.410485 4.53028 0.46196 4.60451 0.526308 4.66667L3.08631 7.22667C3.14828 7.28915 3.22202 7.33875 3.30326 7.37259C3.3845 7.40644 3.47163 7.42386 3.55964 7.42386C3.64765 7.42386 3.73479 7.40644 3.81603 7.37259C3.89726 7.33875 3.971 7.28915 4.03297 7.22667L9.47297 1.78667C9.54064 1.72424 9.59465 1.64847 9.63159 1.56414C9.66852 1.4798 9.6876 1.38873 9.6876 1.29667C9.6876 1.2046 9.66852 1.11353 9.63159 1.02919C9.59465 0.944861 9.54064 0.869094 9.47297 0.806665Z" fill="#FF3EB2"/>
</svg>
