<svg width="21" height="21" viewBox="0 0 21 21" fill="none" xmlns="http://www.w3.org/2000/svg">
<path d="M16.9764 4.39211C16.0971 3.5125 14.9312 2.97771 13.6909 2.88499C12.4506 2.79227 11.2182 3.14778 10.2178 3.88687C9.164 3.10304 7.85232 2.74761 6.54692 2.89216C5.24152 3.03671 4.03937 3.67051 3.18257 4.66592C2.32576 5.66133 1.87793 6.94441 1.92926 8.25679C1.9806 9.56916 2.52728 10.8133 3.45923 11.7388L9.62977 17.9093C9.70677 17.987 9.79838 18.0486 9.89931 18.0906C10.0002 18.1327 10.1085 18.1543 10.2178 18.1543C10.3272 18.1543 10.4354 18.1327 10.5364 18.0906C10.6373 18.0486 10.7289 17.987 10.8059 17.9093L16.9764 11.7388C17.459 11.2565 17.8419 10.6839 18.1031 10.0536C18.3643 9.42329 18.4987 8.74771 18.4987 8.06545C18.4987 7.38318 18.3643 6.7076 18.1031 6.07732C17.8419 5.44703 17.459 4.87439 16.9764 4.39211ZM15.8086 10.5709L10.2178 16.1534L4.62708 10.5709C4.1344 10.0762 3.79879 9.44702 3.66234 8.7623C3.52589 8.07757 3.59467 7.36779 3.86007 6.722C4.12546 6.07621 4.57564 5.52318 5.15414 5.13226C5.73263 4.74135 6.41368 4.52996 7.11186 4.52463C8.04457 4.52692 8.93825 4.89928 9.59664 5.55996C9.67364 5.63759 9.76524 5.69921 9.86618 5.74126C9.96711 5.78331 10.0754 5.80496 10.1847 5.80496C10.294 5.80496 10.4023 5.78331 10.5032 5.74126C10.6042 5.69921 10.6958 5.63759 10.7728 5.55996C11.4506 4.97262 12.3262 4.66473 13.2224 4.69859C14.1186 4.73245 14.9685 5.10553 15.6 5.74233C16.2316 6.37913 16.5976 7.23208 16.624 8.12855C16.6504 9.02502 16.3353 9.89805 15.7423 10.5709H15.8086Z" fill="#535399"/>
</svg>
