<svg width="10" height="11" viewBox="0 0 10 11" fill="none" xmlns="http://www.w3.org/2000/svg">
<path d="M9.64154 4.13789L6.66615 3.70547L5.33608 1.00898C5.29975 0.935154 5.23998 0.875389 5.16615 0.839061C4.981 0.747654 4.756 0.823826 4.66342 1.00898L3.33334 3.70547L0.35795 4.13789C0.275919 4.14961 0.200919 4.18828 0.143497 4.24687C0.0740774 4.31822 0.0358239 4.41422 0.0371424 4.51376C0.0384608 4.6133 0.0792433 4.70825 0.150529 4.77773L2.30326 6.87656L1.79467 9.84023C1.78274 9.90917 1.79037 9.98008 1.81669 10.0449C1.84301 10.1097 1.88697 10.1659 1.94358 10.207C2.00019 10.2481 2.06719 10.2725 2.13697 10.2775C2.20676 10.2825 2.27655 10.2678 2.33842 10.2352L4.99975 8.83594L7.66108 10.2352C7.73373 10.2738 7.81811 10.2867 7.89897 10.2727C8.10287 10.2375 8.23998 10.0441 8.20483 9.84023L7.69623 6.87656L9.84897 4.77773C9.90756 4.72031 9.94623 4.64531 9.95795 4.56328C9.98959 4.3582 9.84662 4.16836 9.64154 4.13789V4.13789Z" fill="#B2B2B2"/>
</svg>
