<svg width="19" height="19" viewBox="0 0 19 19" fill="none" xmlns="http://www.w3.org/2000/svg">
<path d="M11.6435 8.04056H9.43484V5.83186C9.43484 5.6366 9.35727 5.44934 9.2192 5.31127C9.08113 5.1732 8.89386 5.09563 8.6986 5.09563C8.50334 5.09563 8.31608 5.1732 8.17801 5.31127C8.03994 5.44934 7.96237 5.6366 7.96237 5.83186V8.04056H5.75368C5.55842 8.04056 5.37115 8.11812 5.23308 8.2562C5.09501 8.39427 5.01744 8.58153 5.01744 8.77679C5.01744 8.97205 5.09501 9.15931 5.23308 9.29738C5.37115 9.43545 5.55842 9.51302 5.75368 9.51302H7.96237V11.7217C7.96237 11.917 8.03994 12.1042 8.17801 12.2423C8.31608 12.3804 8.50334 12.4579 8.6986 12.4579C8.89386 12.4579 9.08113 12.3804 9.2192 12.2423C9.35727 12.1042 9.43484 11.917 9.43484 11.7217V9.51302H11.6435C11.8388 9.51302 12.0261 9.43545 12.1641 9.29738C12.3022 9.15931 12.3798 8.97205 12.3798 8.77679C12.3798 8.58153 12.3022 8.39427 12.1641 8.2562C12.0261 8.11812 11.8388 8.04056 11.6435 8.04056ZM16.5836 15.6164L13.8522 12.9071C14.9125 11.5851 15.4259 9.90712 15.287 8.21821C15.1481 6.5293 14.3673 4.95779 13.1053 3.82684C11.8433 2.69589 10.196 2.09144 8.50197 2.1378C6.80799 2.18415 5.19614 2.87778 3.99787 4.07605C2.79959 5.27433 2.10596 6.88617 2.05961 8.58016C2.01326 10.2741 2.6177 11.9215 3.74865 13.1835C4.87961 14.4455 6.45111 15.2263 8.14002 15.3652C9.82894 15.5041 11.5069 14.9907 12.8289 13.9304L15.5382 16.6397C15.6066 16.7088 15.6881 16.7635 15.7778 16.8009C15.8675 16.8383 15.9637 16.8575 16.0609 16.8575C16.1581 16.8575 16.2543 16.8383 16.3441 16.8009C16.4338 16.7635 16.5152 16.7088 16.5836 16.6397C16.7163 16.5025 16.7905 16.319 16.7905 16.1281C16.7905 15.9371 16.7163 15.7537 16.5836 15.6164ZM8.6986 13.9304C7.67931 13.9304 6.68291 13.6282 5.8354 13.0619C4.98789 12.4956 4.32734 11.6907 3.93728 10.749C3.54721 9.80729 3.44515 8.77107 3.64401 7.77137C3.84286 6.77166 4.33369 5.85337 5.05444 5.13263C5.77519 4.41188 6.69348 3.92105 7.69318 3.72219C8.69289 3.52334 9.72911 3.6254 10.6708 4.01546C11.6125 4.40553 12.4174 5.06608 12.9837 5.91359C13.55 6.7611 13.8522 7.7575 13.8522 8.77679C13.8522 10.1436 13.3093 11.4545 12.3428 12.421C11.3763 13.3874 10.0654 13.9304 8.6986 13.9304Z" fill="#535399"/>
</svg>
